<svg xmlns="http://www.w3.org/2000/svg" viewBox="0 0 96 96" fill="none">
  <defs>
    <linearGradient id="q2steel" x1="0" y1="0" x2="1" y2="1">
      <stop offset="0" stop-color="#cdd3dc"/>
      <stop offset="1" stop-color="#646b78"/>
    </linearGradient>
    <linearGradient id="q2core" x1="0" y1="0" x2="0" y2="1">
      <stop offset="0" stop-color="#ffb340"/>
      <stop offset="1" stop-color="#d9540f"/>
    </linearGradient>
  </defs>
  <!-- strogg gear -->
  <g fill="url(#q2steel)">
    <rect x="43" y="6" width="10" height="14" rx="2"/>
    <rect x="43" y="76" width="10" height="14" rx="2"/>
    <rect x="6" y="43" width="14" height="10" rx="2"/>
    <rect x="76" y="43" width="14" height="10" rx="2"/>
    <rect x="43" y="6" width="10" height="14" rx="2" transform="rotate(45 48 48)"/>
    <rect x="43" y="76" width="10" height="14" rx="2" transform="rotate(45 48 48)"/>
    <rect x="6" y="43" width="14" height="10" rx="2" transform="rotate(45 48 48)"/>
    <rect x="76" y="43" width="14" height="10" rx="2" transform="rotate(45 48 48)"/>
  </g>
  <circle cx="48" cy="48" r="28" stroke="url(#q2steel)" stroke-width="9"/>
  <!-- machine eye -->
  <circle cx="48" cy="48" r="13" fill="url(#q2core)"/>
  <circle cx="48" cy="48" r="5" fill="#241006"/>
</svg>
